<svg xmlns="http://www.w3.org/2000/svg" xmlns:xlink="http://www.w3.org/1999/xlink" width="500" zoomAndPan="magnify" viewBox="0 0 375 374.999991" height="500" preserveAspectRatio="xMidYMid meet" version="1.0"><defs><clipPath id="56bd994c81"><path d="M 75 0 L 300 0 C 341.421875 0 375 33.578125 375 75 L 375 300 C 375 341.421875 341.421875 375 300 375 L 75 375 C 33.578125 375 0 341.421875 0 300 L 0 75 C 0 33.578125 33.578125 0 75 0 Z M 75 0 " clip-rule="nonzero"/></clipPath><clipPath id="07dfa7e1e8"><path d="M 0 0 L 375 0 L 375 375 L 0 375 Z M 0 0 " clip-rule="nonzero"/></clipPath><clipPath id="d1d8218f3f"><path d="M 75 0 L 300 0 C 341.421875 0 375 33.578125 375 75 L 375 300 C 375 341.421875 341.421875 375 300 375 L 75 375 C 33.578125 375 0 341.421875 0 300 L 0 75 C 0 33.578125 33.578125 0 75 0 Z M 75 0 " clip-rule="nonzero"/></clipPath><clipPath id="6443a501a1"><rect x="0" width="375" y="0" height="375"/></clipPath><clipPath id="9ea9332327"><path d="M 71 79 L 294 79 L 294 301 L 71 301 Z M 71 79 " clip-rule="nonzero"/></clipPath><clipPath id="f5f9ffe600"><path d="M 197.140625 -12.050781 L 384.875 175.683594 L 197.140625 363.421875 L 9.402344 175.683594 Z M 197.140625 -12.050781 " clip-rule="nonzero"/></clipPath><clipPath id="b67989932d"><path d="M 197.140625 -12.050781 L 384.875 175.683594 L 197.140625 363.421875 L 9.402344 175.683594 Z M 197.140625 -12.050781 " clip-rule="nonzero"/></clipPath></defs><g clip-path="url(#56bd994c81)"><g transform="matrix(1, 0, 0, 1, 0, 0)"><g clip-path="url(#6443a501a1)"><g clip-path="url(#07dfa7e1e8)"><g clip-path="url(#d1d8218f3f)"><rect x="-82.5" width="540" fill="#2563eb" height="539.999987" y="-82.499998" fill-opacity="1"/></g></g></g></g></g><g clip-path="url(#9ea9332327)"><g clip-path="url(#f5f9ffe600)"><g clip-path="url(#b67989932d)"><path fill="#ffffff" d="M 274.339844 285.730469 L 263.3125 296.761719 L 197.136719 208.527344 L 153.023438 252.644531 L 153.023438 296.765625 C 147.507812 302.28125 136.480469 302.28125 130.960938 296.761719 C 108.90625 274.707031 75.816406 241.617188 75.816406 241.617188 C 70.300781 236.105469 70.296875 225.074219 75.816406 219.558594 L 119.9375 219.554688 L 164.050781 175.441406 L 75.820312 109.269531 L 86.847656 98.238281 L 208.167969 131.328125 C 208.167969 131.328125 211.84375 127.652344 230.226562 109.269531 C 241.253906 98.238281 279.859375 70.667969 290.886719 81.695312 C 301.914062 92.722656 274.339844 131.324219 263.3125 142.355469 C 244.929688 160.738281 241.253906 164.414062 241.253906 164.414062 Z M 274.339844 285.730469 " fill-opacity="1" fill-rule="nonzero"/></g></g></g></svg>